# Blender v2.68 (sub 0) OBJ File: 'NormalUVAr.blend'
# www.blender.org
o mesh_Cube
v -1.000000 -1.000000 1.000000
v -1.000000 -1.000000 -1.000000
v 1.000000 -1.000000 -1.000000
v 1.000000 -1.000000 1.000000
v -1.000000 1.000000 1.000000
v -1.000000 1.000000 -1.000000
v 1.000000 1.000000 -1.000000
v 1.000000 1.000000 1.000000
v -1.000000 1.000000 0.600000
v -1.000000 1.000000 0.200000
v -1.000000 1.000000 -0.200000
v -1.000000 1.000000 -0.600000
v -1.000000 -1.000000 -0.600000
v -1.000000 -1.000000 -0.200000
v -1.000000 -1.000000 0.200000
v -1.000000 -1.000000 0.600000
v 1.000000 1.000000 -0.600000
v 1.000000 1.000000 -0.200000
v 1.000000 1.000000 0.200000
v 1.000000 1.000000 0.600000
v 1.000000 -1.000000 0.600000
v 1.000000 -1.000000 0.200000
v 1.000000 -1.000000 -0.200000
v 1.000000 -1.000000 -0.600000
v -0.600000 1.000000 -1.000000
v -0.200000 1.000000 -1.000000
v 0.200000 1.000000 -1.000000
v 0.600000 1.000000 -1.000000
v 0.600000 -1.000000 -1.000000
v 0.200000 -1.000000 -1.000000
v -0.200000 -1.000000 -1.000000
v -0.600000 -1.000000 -1.000000
v 0.600000 1.000000 1.000000
v 0.200000 1.000000 1.000000
v -0.200000 1.000000 1.000000
v -0.600000 1.000000 1.000000
v -0.600000 -1.000000 1.000000
v -0.200000 -1.000000 1.000000
v 0.200000 -1.000000 1.000000
v 0.600000 -1.000000 1.000000
v -0.600000 -1.000000 0.600000
v -0.200000 -1.000000 0.600000
v 0.200000 -1.000000 0.600000
v 0.600000 -1.000000 0.600000
v -0.600000 -1.000000 0.200000
v -0.200000 -1.000000 0.200000
v 0.200000 -1.000000 0.200000
v 0.600000 -1.000000 0.200000
v -0.600000 -1.000000 -0.200000
v -0.200000 -1.000000 -0.200000
v 0.200000 -1.000000 -0.200000
v 0.600000 -1.000000 -0.200000
v -0.600000 -1.000000 -0.600000
v -0.200000 -1.000000 -0.600000
v 0.200000 -1.000000 -0.600000
v 0.600000 -1.000000 -0.600000
v 0.600000 1.000000 0.600000
v 0.200000 1.000000 0.600000
v -0.200000 1.000000 0.600000
v -0.600000 1.000000 0.600000
v 0.600000 1.000000 0.200000
v 0.200000 1.000000 0.200000
v -0.200000 1.000000 0.200000
v -0.600000 1.000000 0.200000
v 0.600000 1.000000 -0.200000
v 0.200000 1.000000 -0.200000
v -0.200000 1.000000 -0.200000
v -0.600000 1.000000 -0.200000
v 0.600000 1.000000 -0.600000
v 0.200000 1.000000 -0.600000
v -0.200000 1.000000 -0.600000
v -0.600000 1.000000 -0.600000
v -1.000000 0.600000 -1.000000
v -1.000000 0.200000 -1.000000
v -1.000000 -0.200000 -1.000000
v -1.000000 -0.600000 -1.000000
v -1.000000 -0.600000 1.000000
v -1.000000 -0.200000 1.000000
v -1.000000 0.200000 1.000000
v -1.000000 0.600000 1.000000
v 1.000000 0.600000 -1.000000
v 1.000000 0.200000 -1.000000
v 1.000000 -0.200000 -1.000000
v 1.000000 -0.600000 -1.000000
v 1.000000 0.600000 1.000000
v 1.000000 0.200000 1.000000
v 1.000000 -0.200000 1.000000
v 1.000000 -0.600000 1.000000
v -1.000000 0.600000 0.600000
v -1.000000 0.200000 0.600000
v -1.000000 -0.200000 0.600000
v -1.000000 -0.600000 0.600000
v -1.000000 0.600000 0.200000
v -1.000000 0.200000 0.200000
v -1.000000 -0.200000 0.200000
v -1.000000 -0.600000 0.200000
v -1.000000 0.600000 -0.200000
v -1.000000 0.200000 -0.200000
v -1.000000 -0.200000 -0.200000
v -1.000000 -0.600000 -0.200000
v -1.000000 0.600000 -0.600000
v -1.000000 0.200000 -0.600000
v -1.000000 -0.200000 -0.600000
v -1.000000 -0.600000 -0.600000
v 1.000000 0.600000 -0.600000
v 1.000000 0.200000 -0.600000
v 1.000000 -0.200000 -0.600000
v 1.000000 -0.600000 -0.600000
v 1.000000 0.600000 -0.200000
v 1.000000 0.200000 -0.200000
v 1.000000 -0.200000 -0.200000
v 1.000000 -0.600000 -0.200000
v 1.000000 0.600000 0.200000
v 1.000000 0.200000 0.200000
v 1.000000 -0.200000 0.200000
v 1.000000 -0.600000 0.200000
v 1.000000 0.600000 0.600000
v 1.000000 0.200000 0.600000
v 1.000000 -0.200000 0.600000
v 1.000000 -0.600000 0.600000
v -0.600000 0.600000 -1.000000
v -0.600000 0.200000 -1.000000
v -0.600000 -0.200000 -1.000000
v -0.600000 -0.600000 -1.000000
v -0.200000 0.600000 -1.000000
v -0.200000 0.200000 -1.000000
v -0.200000 -0.200000 -1.000000
v -0.200000 -0.600000 -1.000000
v 0.200000 0.600000 -1.000000
v 0.200000 0.200000 -1.000000
v 0.200000 -0.200000 -1.000000
v 0.200000 -0.600000 -1.000000
v 0.600000 0.600000 -1.000000
v 0.600000 0.200000 -1.000000
v 0.600000 -0.200000 -1.000000
v 0.600000 -0.600000 -1.000000
v 0.600000 0.600000 1.000000
v 0.600000 0.200000 1.000000
v 0.600000 -0.200000 1.000000
v 0.600000 -0.600000 1.000000
v 0.200000 0.600000 1.000000
v 0.200000 0.200000 1.000000
v 0.200000 -0.200000 1.000000
v 0.200000 -0.600000 1.000000
v -0.200000 0.600000 1.000000
v -0.200000 0.200000 1.000000
v -0.200000 -0.200000 1.000000
v -0.200000 -0.600000 1.000000
v -0.600000 0.600000 1.000000
v -0.600000 0.200000 1.000000
v -0.600000 -0.200000 1.000000
v -0.600000 -0.600000 1.000000
vt 0.799940 0.799940
vt 0.999900 0.799940
vt 0.799940 0.999900
vt 0.200060 0.799939
vt 0.200060 0.999899
vt 0.000100 0.799939
vt 0.200061 0.200061
vt 0.000101 0.200061
vt 0.200060 0.000101
vt 0.200266 0.200060
vt 0.000375 0.199991
vt 0.200335 0.000169
vt 0.799940 0.799938
vt 0.999900 0.799938
vt 0.799940 0.999898
vt 0.000100 0.799940
vt 0.000101 0.799940
vt 0.200061 0.799940
vt 0.000101 0.999900
vt 0.400020 0.799940
vt 0.200061 0.999899
vt 0.599980 0.799940
vt 0.400020 0.999899
vt 0.599980 0.999899
vt 0.999900 0.200060
vt 0.799940 0.200060
vt 0.999900 0.000100
vt 0.599980 0.200060
vt 0.799940 0.000100
vt 0.400020 0.200060
vt 0.599980 0.000100
vt 0.400020 0.000100
vt 0.000100 0.799938
vt 0.000100 0.999898
vt 0.400020 0.799939
vt 0.599980 0.799939
vt 0.200060 0.000100
vt 0.200060 0.200060
vt 0.000101 0.000100
vt 0.200060 0.400020
vt 0.000101 0.200060
vt 0.200060 0.599979
vt 0.000100 0.400019
vt 0.000100 0.599979
vt 0.000101 0.000101
vt 0.200060 0.400019
vt 0.000101 0.400019
vt 0.999831 0.200335
vt 0.799940 0.200266
vt 0.999900 0.000444
vt 0.600049 0.200197
vt 0.800009 0.000375
vt 0.400158 0.200128
vt 0.600118 0.000306
vt 0.400226 0.000237
vt 0.799939 0.000100
vt 0.999898 0.000100
vt 0.799939 0.200059
vt 0.999898 0.200059
vt 0.799939 0.400019
vt 0.999899 0.400019
vt 0.799939 0.599979
vt 0.999899 0.599978
vt 0.999900 0.999898
vt 0.799940 0.799939
vt 0.000102 0.000100
vt 0.200061 0.000100
vt 0.000101 0.200059
vt 0.200061 0.200060
vt 0.400020 0.400019
vt 0.400020 0.599979
vt 0.599979 0.000100
vt 0.599980 0.400019
vt 0.599980 0.599979
vt 0.799939 0.200060
vt 0.599979 0.200060
vt 0.400020 0.400020
vt 0.799940 0.599979
vt 0.799940 0.400020
vt 0.999900 0.400020
vt 0.799940 0.599980
vt 0.999900 0.599980
vt 0.999900 0.799939
vt 0.999900 0.999899
vt 0.799940 0.999899
vt 0.599979 0.999899
vt 0.400019 0.999899
vt 0.200063 0.999899
vt 0.000104 0.999900
vt 0.200062 0.799939
vt 0.000103 0.799940
vt 0.200062 0.599980
vt 0.000102 0.599981
vt 0.200061 0.400020
vt 0.000102 0.400021
vt 0.199991 0.999625
vt 0.000100 0.999556
vt 0.200060 0.799733
vt 0.000169 0.799664
vt 0.200129 0.599842
vt 0.000238 0.599773
vt 0.200198 0.399951
vt 0.000307 0.399882
vt 0.000100 0.000100
vt 0.000100 0.200060
vt 0.000100 0.400020
vt 0.000101 0.599980
vt 0.200060 0.599980
vt 0.400020 0.599980
vt 0.599980 0.400020
vt 0.599980 0.599980
vt 0.999900 0.999897
vt 0.799941 0.999897
vt 0.999899 0.599979
vt 0.999899 0.400020
vt 0.599982 0.999898
vt 0.599981 0.799939
vt 0.599981 0.599979
vt 0.599981 0.400020
vt 0.400022 0.999898
vt 0.400022 0.799939
vt 0.400021 0.599980
vt 0.400021 0.400020
vt 0.400020 0.000101
vt 0.599979 0.400020
vt 0.999556 0.999899
vt 0.799665 0.999831
vt 0.999625 0.800008
vt 0.799734 0.799940
vt 0.999693 0.600117
vt 0.799802 0.600048
vt 0.999762 0.400226
vt 0.799871 0.400157
vt 0.599774 0.999762
vt 0.599842 0.799871
vt 0.599911 0.599980
vt 0.599980 0.400088
vt 0.399883 0.999693
vt 0.399951 0.799802
vt 0.400020 0.599911
vt 0.400089 0.400020
vt 0.999900 0.999900
vt 0.000100 0.000101
vt 0.000444 0.000100
vt 0.000100 0.999900
vn -1.000000 0.000000 0.000000
vn 0.000000 0.000000 -1.000000
vn 1.000000 -0.000000 0.000000
vn 0.000000 -0.000000 1.000000
vn -0.000000 -1.000000 0.000000
vn -0.000000 1.000000 0.000000
s off
f 104/1/1 76/2/1 13/3/1
f 136/4/2 84/5/2 29/6/2
f 120/7/3 88/8/3 21/9/3
f 152/10/4 77/11/4 37/12/4
f 56/13/5 29/14/5 24/15/5
f 72/4/6 25/5/6 12/16/6
f 77/17/1 92/18/1 1/19/1
f 92/18/1 96/20/1 16/21/1
f 96/20/1 100/22/1 15/23/1
f 100/22/1 104/1/1 14/24/1
f 84/25/3 108/26/3 3/27/3
f 108/26/3 112/28/3 24/29/3
f 112/28/3 116/30/3 23/31/3
f 116/30/3 120/7/3 22/32/3
f 40/33/5 44/4/5 4/34/5
f 44/4/5 48/35/5 21/5/5
f 48/35/5 52/36/5 22/23/5
f 52/36/5 56/13/5 23/24/5
f 36/37/6 60/38/6 5/39/6
f 60/38/6 64/40/6 9/41/6
f 64/40/6 68/42/6 10/43/6
f 68/42/6 72/4/6 11/44/6
f 76/9/2 124/38/2 2/45/2
f 124/38/2 128/46/2 32/41/2
f 128/46/2 132/42/2 31/47/2
f 132/42/2 136/4/2 30/44/2
f 88/48/4 140/49/4 4/50/4
f 140/49/4 144/51/4 40/52/4
f 144/51/4 148/53/4 39/54/4
f 148/53/4 152/10/4 38/55/4
f 13/56/5 2/57/5 53/58/5
f 53/58/5 32/59/5 54/60/5
f 54/60/5 31/61/5 55/62/5
f 55/62/5 30/63/5 56/13/5
f 17/14/6 7/64/6 69/65/6
f 69/65/6 28/15/6 70/36/6
f 70/36/6 27/24/6 71/35/6
f 71/35/6 26/23/6 72/4/6
f 1/66/5 16/67/5 37/68/5
f 37/68/5 41/69/5 38/47/5
f 38/47/5 42/46/5 39/44/5
f 39/44/5 43/42/5 40/33/5
f 16/67/5 15/32/5 41/69/5
f 41/69/5 45/30/5 42/46/5
f 42/46/5 46/70/5 43/42/5
f 43/42/5 47/71/5 44/4/5
f 15/32/5 14/72/5 45/30/5
f 45/30/5 49/28/5 46/70/5
f 46/70/5 50/73/5 47/71/5
f 47/71/5 51/74/5 48/35/5
f 14/72/5 13/56/5 49/28/5
f 49/28/5 53/58/5 50/73/5
f 50/73/5 54/60/5 51/74/5
f 51/74/5 55/62/5 52/36/5
f 8/57/6 20/59/6 33/56/6
f 33/56/6 57/75/6 34/72/6
f 34/72/6 58/76/6 35/32/6
f 35/32/6 59/30/6 36/37/6
f 20/59/6 19/61/6 57/75/6
f 57/75/6 61/60/6 58/76/6
f 58/76/6 62/73/6 59/30/6
f 59/30/6 63/77/6 60/38/6
f 19/61/6 18/63/6 61/60/6
f 61/60/6 65/78/6 62/73/6
f 62/73/6 66/74/6 63/77/6
f 63/77/6 67/71/6 64/40/6
f 18/63/6 17/14/6 65/78/6
f 65/78/6 69/65/6 66/74/6
f 66/74/6 70/36/6 67/71/6
f 67/71/6 71/35/6 68/42/6
f 12/29/1 6/27/1 101/26/1
f 101/26/1 73/25/1 102/79/1
f 102/79/1 74/80/1 103/81/1
f 103/81/1 75/82/1 104/1/1
f 28/83/2 7/84/2 133/65/2
f 133/65/2 81/85/2 134/36/2
f 134/36/2 82/86/2 135/35/2
f 135/35/2 83/87/2 136/4/2
f 20/88/3 8/89/3 117/90/3
f 117/90/3 85/91/3 118/92/3
f 118/92/3 86/93/3 119/94/3
f 119/94/3 87/95/3 120/7/3
f 36/96/4 5/97/4 149/98/4
f 149/98/4 80/99/4 150/100/4
f 150/100/4 79/101/4 151/102/4
f 151/102/4 78/103/4 152/10/4
f 5/104/1 9/37/1 80/105/1
f 80/105/1 89/38/1 79/106/1
f 79/106/1 90/40/1 78/107/1
f 78/107/1 91/108/1 77/17/1
f 9/37/1 10/32/1 89/38/1
f 89/38/1 93/30/1 90/40/1
f 90/40/1 94/77/1 91/108/1
f 91/108/1 95/109/1 92/18/1
f 10/32/1 11/31/1 93/30/1
f 93/30/1 97/28/1 94/77/1
f 94/77/1 98/110/1 95/109/1
f 95/109/1 99/111/1 96/20/1
f 11/31/1 12/29/1 97/28/1
f 97/28/1 101/26/1 98/110/1
f 98/110/1 102/79/1 99/111/1
f 99/111/1 103/81/1 100/22/1
f 7/112/3 17/113/3 81/14/3
f 81/14/3 105/13/3 82/114/3
f 82/114/3 106/78/3 83/115/3
f 83/115/3 107/79/3 84/25/3
f 17/113/3 18/116/3 105/13/3
f 105/13/3 109/117/3 106/78/3
f 106/78/3 110/118/3 107/79/3
f 107/79/3 111/119/3 108/26/3
f 18/116/3 19/120/3 109/117/3
f 109/117/3 113/121/3 110/118/3
f 110/118/3 114/122/3 111/119/3
f 111/119/3 115/123/3 112/28/3
f 19/120/3 20/88/3 113/121/3
f 113/121/3 117/90/3 114/122/3
f 114/122/3 118/92/3 115/123/3
f 115/123/3 119/94/3 116/30/3
f 6/57/2 25/59/2 73/56/2
f 73/56/2 121/75/2 74/72/2
f 74/72/2 122/76/2 75/124/2
f 75/124/2 123/30/2 76/9/2
f 25/59/2 26/61/2 121/75/2
f 121/75/2 125/60/2 122/76/2
f 122/76/2 126/125/2 123/30/2
f 123/30/2 127/77/2 124/38/2
f 26/61/2 27/114/2 125/60/2
f 125/60/2 129/62/2 126/125/2
f 126/125/2 130/74/2 127/77/2
f 127/77/2 131/71/2 128/46/2
f 27/114/2 28/83/2 129/62/2
f 129/62/2 133/65/2 130/74/2
f 130/74/2 134/36/2 131/71/2
f 131/71/2 135/35/2 132/42/2
f 8/126/4 33/127/4 85/128/4
f 85/128/4 137/129/4 86/130/4
f 86/130/4 138/131/4 87/132/4
f 87/132/4 139/133/4 88/48/4
f 33/127/4 34/134/4 137/129/4
f 137/129/4 141/135/4 138/131/4
f 138/131/4 142/136/4 139/133/4
f 139/133/4 143/137/4 140/49/4
f 34/134/4 35/138/4 141/135/4
f 141/135/4 145/139/4 142/136/4
f 142/136/4 146/140/4 143/137/4
f 143/137/4 147/141/4 144/51/4
f 35/138/4 36/96/4 145/139/4
f 145/139/4 149/98/4 146/140/4
f 146/140/4 150/100/4 147/141/4
f 147/141/4 151/102/4 148/53/4
f 76/2/1 2/142/1 13/3/1
f 84/5/2 3/34/2 29/6/2
f 88/8/3 4/143/3 21/9/3
f 77/11/4 1/144/4 37/12/4
f 29/14/5 3/64/5 24/15/5
f 25/5/6 6/145/6 12/16/6
f 92/18/1 16/21/1 1/19/1
f 96/20/1 15/23/1 16/21/1
f 100/22/1 14/24/1 15/23/1
f 104/1/1 13/3/1 14/24/1
f 108/26/3 24/29/3 3/27/3
f 112/28/3 23/31/3 24/29/3
f 116/30/3 22/32/3 23/31/3
f 120/7/3 21/9/3 22/32/3
f 44/4/5 21/5/5 4/34/5
f 48/35/5 22/23/5 21/5/5
f 52/36/5 23/24/5 22/23/5
f 56/13/5 24/15/5 23/24/5
f 60/38/6 9/41/6 5/39/6
f 64/40/6 10/43/6 9/41/6
f 68/42/6 11/44/6 10/43/6
f 72/4/6 12/16/6 11/44/6
f 124/38/2 32/41/2 2/45/2
f 128/46/2 31/47/2 32/41/2
f 132/42/2 30/44/2 31/47/2
f 136/4/2 29/6/2 30/44/2
f 140/49/4 40/52/4 4/50/4
f 144/51/4 39/54/4 40/52/4
f 148/53/4 38/55/4 39/54/4
f 152/10/4 37/12/4 38/55/4
f 2/57/5 32/59/5 53/58/5
f 32/59/5 31/61/5 54/60/5
f 31/61/5 30/63/5 55/62/5
f 30/63/5 29/14/5 56/13/5
f 7/64/6 28/15/6 69/65/6
f 28/15/6 27/24/6 70/36/6
f 27/24/6 26/23/6 71/35/6
f 26/23/6 25/5/6 72/4/6
f 16/67/5 41/69/5 37/68/5
f 41/69/5 42/46/5 38/47/5
f 42/46/5 43/42/5 39/44/5
f 43/42/5 44/4/5 40/33/5
f 15/32/5 45/30/5 41/69/5
f 45/30/5 46/70/5 42/46/5
f 46/70/5 47/71/5 43/42/5
f 47/71/5 48/35/5 44/4/5
f 14/72/5 49/28/5 45/30/5
f 49/28/5 50/73/5 46/70/5
f 50/73/5 51/74/5 47/71/5
f 51/74/5 52/36/5 48/35/5
f 13/56/5 53/58/5 49/28/5
f 53/58/5 54/60/5 50/73/5
f 54/60/5 55/62/5 51/74/5
f 55/62/5 56/13/5 52/36/5
f 20/59/6 57/75/6 33/56/6
f 57/75/6 58/76/6 34/72/6
f 58/76/6 59/30/6 35/32/6
f 59/30/6 60/38/6 36/37/6
f 19/61/6 61/60/6 57/75/6
f 61/60/6 62/73/6 58/76/6
f 62/73/6 63/77/6 59/30/6
f 63/77/6 64/40/6 60/38/6
f 18/63/6 65/78/6 61/60/6
f 65/78/6 66/74/6 62/73/6
f 66/74/6 67/71/6 63/77/6
f 67/71/6 68/42/6 64/40/6
f 17/14/6 69/65/6 65/78/6
f 69/65/6 70/36/6 66/74/6
f 70/36/6 71/35/6 67/71/6
f 71/35/6 72/4/6 68/42/6
f 6/27/1 73/25/1 101/26/1
f 73/25/1 74/80/1 102/79/1
f 74/80/1 75/82/1 103/81/1
f 75/82/1 76/2/1 104/1/1
f 7/84/2 81/85/2 133/65/2
f 81/85/2 82/86/2 134/36/2
f 82/86/2 83/87/2 135/35/2
f 83/87/2 84/5/2 136/4/2
f 8/89/3 85/91/3 117/90/3
f 85/91/3 86/93/3 118/92/3
f 86/93/3 87/95/3 119/94/3
f 87/95/3 88/8/3 120/7/3
f 5/97/4 80/99/4 149/98/4
f 80/99/4 79/101/4 150/100/4
f 79/101/4 78/103/4 151/102/4
f 78/103/4 77/11/4 152/10/4
f 9/37/1 89/38/1 80/105/1
f 89/38/1 90/40/1 79/106/1
f 90/40/1 91/108/1 78/107/1
f 91/108/1 92/18/1 77/17/1
f 10/32/1 93/30/1 89/38/1
f 93/30/1 94/77/1 90/40/1
f 94/77/1 95/109/1 91/108/1
f 95/109/1 96/20/1 92/18/1
f 11/31/1 97/28/1 93/30/1
f 97/28/1 98/110/1 94/77/1
f 98/110/1 99/111/1 95/109/1
f 99/111/1 100/22/1 96/20/1
f 12/29/1 101/26/1 97/28/1
f 101/26/1 102/79/1 98/110/1
f 102/79/1 103/81/1 99/111/1
f 103/81/1 104/1/1 100/22/1
f 17/113/3 105/13/3 81/14/3
f 105/13/3 106/78/3 82/114/3
f 106/78/3 107/79/3 83/115/3
f 107/79/3 108/26/3 84/25/3
f 18/116/3 109/117/3 105/13/3
f 109/117/3 110/118/3 106/78/3
f 110/118/3 111/119/3 107/79/3
f 111/119/3 112/28/3 108/26/3
f 19/120/3 113/121/3 109/117/3
f 113/121/3 114/122/3 110/118/3
f 114/122/3 115/123/3 111/119/3
f 115/123/3 116/30/3 112/28/3
f 20/88/3 117/90/3 113/121/3
f 117/90/3 118/92/3 114/122/3
f 118/92/3 119/94/3 115/123/3
f 119/94/3 120/7/3 116/30/3
f 25/59/2 121/75/2 73/56/2
f 121/75/2 122/76/2 74/72/2
f 122/76/2 123/30/2 75/124/2
f 123/30/2 124/38/2 76/9/2
f 26/61/2 125/60/2 121/75/2
f 125/60/2 126/125/2 122/76/2
f 126/125/2 127/77/2 123/30/2
f 127/77/2 128/46/2 124/38/2
f 27/114/2 129/62/2 125/60/2
f 129/62/2 130/74/2 126/125/2
f 130/74/2 131/71/2 127/77/2
f 131/71/2 132/42/2 128/46/2
f 28/83/2 133/65/2 129/62/2
f 133/65/2 134/36/2 130/74/2
f 134/36/2 135/35/2 131/71/2
f 135/35/2 136/4/2 132/42/2
f 33/127/4 137/129/4 85/128/4
f 137/129/4 138/131/4 86/130/4
f 138/131/4 139/133/4 87/132/4
f 139/133/4 140/49/4 88/48/4
f 34/134/4 141/135/4 137/129/4
f 141/135/4 142/136/4 138/131/4
f 142/136/4 143/137/4 139/133/4
f 143/137/4 144/51/4 140/49/4
f 35/138/4 145/139/4 141/135/4
f 145/139/4 146/140/4 142/136/4
f 146/140/4 147/141/4 143/137/4
f 147/141/4 148/53/4 144/51/4
f 36/96/4 149/98/4 145/139/4
f 149/98/4 150/100/4 146/140/4
f 150/100/4 151/102/4 147/141/4
f 151/102/4 152/10/4 148/53/4
