# Blender v2.68 (sub 0) OBJ File: 'NormalUVAr.blend'
# www.blender.org
o mesh_Cone
v 0.000000 -1.000000 -1.000000
v 0.195090 -1.000000 -0.980785
v 0.382683 -1.000000 -0.923880
v 0.555570 -1.000000 -0.831470
v 0.707107 -1.000000 -0.707107
v 0.831470 -1.000000 -0.555570
v 0.923880 -1.000000 -0.382683
v 0.980785 -1.000000 -0.195090
v 1.000000 -1.000000 -0.000000
v 0.000000 1.000000 0.000000
v 0.980785 -1.000000 0.195090
v 0.923880 -1.000000 0.382683
v 0.831470 -1.000000 0.555570
v 0.707107 -1.000000 0.707107
v 0.555570 -1.000000 0.831470
v 0.382683 -1.000000 0.923880
v 0.195090 -1.000000 0.980785
v -0.000000 -1.000000 1.000000
v -0.195091 -1.000000 0.980785
v -0.382684 -1.000000 0.923879
v -0.555571 -1.000000 0.831469
v -0.707107 -1.000000 0.707106
v -0.831470 -1.000000 0.555570
v -0.923880 -1.000000 0.382683
v -0.980785 -1.000000 0.195089
v -1.000000 -1.000000 -0.000001
v -0.980785 -1.000000 -0.195091
v -0.923879 -1.000000 -0.382684
v -0.831469 -1.000000 -0.555571
v -0.707106 -1.000000 -0.707108
v -0.555569 -1.000000 -0.831470
v -0.382682 -1.000000 -0.923880
v -0.195089 -1.000000 -0.980786
vt 0.728122 0.733602
vt 0.620977 0.380391
vt 0.794971 0.705912
vt 0.855134 0.665713
vt 0.906298 0.614549
vt 0.946498 0.554386
vt 0.657155 0.747718
vt 0.584798 0.747718
vt 0.513831 0.733602
vt 0.446982 0.705911
vt 0.386819 0.665712
vt 0.335655 0.614548
vt 0.295456 0.554385
vt 0.267766 0.487536
vt 0.253649 0.416569
vt 0.253649 0.344212
vt 0.267765 0.273245
vt 0.295455 0.206396
vt 0.335655 0.146233
vt 0.386819 0.095069
vt 0.446982 0.054869
vt 0.513831 0.027179
vt 0.584798 0.013063
vt 0.657155 0.013063
vt 0.728122 0.027180
vt 0.794971 0.054870
vt 0.855134 0.095069
vt 0.906299 0.146233
vt 0.946498 0.206396
vt 0.974188 0.273246
vt 0.988304 0.344212
vt 0.988304 0.416570
vt 0.974188 0.487536
vt 0.209541 0.989356
vt 0.247991 0.985569
vt 0.171091 0.985569
vt 0.284964 0.974353
vt 0.319038 0.956140
vt 0.348905 0.931629
vt 0.373415 0.901763
vt 0.391629 0.867689
vt 0.402844 0.830716
vt 0.406631 0.792266
vt 0.402844 0.753815
vt 0.391629 0.716842
vt 0.373415 0.682768
vt 0.348905 0.652902
vt 0.016238 0.753815
vt 0.045666 0.682768
vt 0.027453 0.716843
vt 0.070177 0.652902
vt 0.134118 0.974353
vt 0.319038 0.628391
vt 0.284964 0.610178
vt 0.247991 0.598962
vt 0.171091 0.598962
vt 0.209541 0.595175
vt 0.134118 0.610178
vt 0.100044 0.628391
vt 0.016238 0.830716
vt 0.012451 0.792266
vt 0.100044 0.956140
vt 0.070177 0.931630
vt 0.027454 0.867689
vt 0.045667 0.901763
vn -0.330668 -0.503281 -0.798334
vn 0.000000 1.000000 0.000000
vn -0.168554 -0.503281 -0.847499
vn 0.000000 -0.503281 -0.864101
vn 0.168554 -0.503281 -0.847499
vn 0.330668 -0.503281 -0.798334
vn -0.480056 -0.503281 -0.718467
vn -0.611011 -0.503281 -0.611011
vn -0.718467 -0.503281 -0.480056
vn -0.798334 -0.503281 -0.330668
vn -0.847499 -0.503281 -0.168554
vn -0.864101 -0.503281 0.000000
vn -0.847499 -0.503281 0.168554
vn -0.798334 -0.503281 0.330668
vn -0.718467 -0.503281 0.480056
vn -0.611011 -0.503281 0.611011
vn -0.480056 -0.503281 0.718467
vn -0.330668 -0.503281 0.798334
vn -0.168554 -0.503281 0.847499
vn 0.000000 -0.503281 0.864101
vn 0.168554 -0.503281 0.847499
vn 0.330668 -0.503281 0.798334
vn 0.480056 -0.503281 0.718467
vn 0.611011 -0.503281 0.611011
vn 0.718467 -0.503281 0.480056
vn 0.798334 -0.503281 0.330668
vn 0.847499 -0.503281 0.168554
vn 0.864101 -0.503281 0.000000
vn 0.847499 -0.503281 -0.168554
vn 0.798334 -0.503281 -0.330668
vn 0.718467 -0.503281 -0.480056
vn 0.611011 -0.503281 -0.611011
vn 0.480056 -0.503281 -0.718467
s 1
f 32/1/1 10/2/2 33/3/3
f 1/4/4 10/2/2 2/5/5
f 33/3/3 10/2/2 1/4/4
f 2/5/5 10/2/2 3/6/6
f 31/7/7 10/2/2 32/1/1
f 30/8/8 10/2/2 31/7/7
f 29/9/9 10/2/2 30/8/8
f 28/10/10 10/2/2 29/9/9
f 27/11/11 10/2/2 28/10/10
f 26/12/12 10/2/2 27/11/11
f 25/13/13 10/2/2 26/12/12
f 24/14/14 10/2/2 25/13/13
f 23/15/15 10/2/2 24/14/14
f 22/16/16 10/2/2 23/15/15
f 21/17/17 10/2/2 22/16/16
f 20/18/18 10/2/2 21/17/17
f 19/19/19 10/2/2 20/18/18
f 18/20/20 10/2/2 19/19/19
f 17/21/21 10/2/2 18/20/20
f 16/22/22 10/2/2 17/21/21
f 15/23/23 10/2/2 16/22/22
f 14/24/24 10/2/2 15/23/23
f 13/25/25 10/2/2 14/24/24
f 12/26/26 10/2/2 13/25/25
f 11/27/27 10/2/2 12/26/26
f 9/28/28 10/2/2 11/27/27
f 8/29/29 10/2/2 9/28/28
f 7/30/30 10/2/2 8/29/29
f 6/31/31 10/2/2 7/30/30
f 5/32/32 10/2/2 6/31/31
f 4/33/33 10/2/2 5/32/32
f 3/6/6 10/2/2 4/33/33
f 1/34/4 2/35/5 33/36/3
f 2/35/5 3/37/6 33/36/3
f 3/37/6 4/38/33 33/36/3
f 4/38/33 5/39/32 33/36/3
f 5/39/32 6/40/31 33/36/3
f 6/40/31 7/41/30 33/36/3
f 7/41/30 8/42/29 33/36/3
f 8/42/29 9/43/28 33/36/3
f 9/43/28 11/44/27 33/36/3
f 11/44/27 12/45/26 33/36/3
f 12/45/26 13/46/25 33/36/3
f 13/46/25 14/47/24 33/36/3
f 25/48/13 23/49/15 24/50/14
f 25/48/13 22/51/16 23/49/15
f 33/36/3 14/47/24 32/52/1
f 14/47/24 15/53/23 32/52/1
f 15/53/23 16/54/22 17/55/21
f 32/52/1 15/53/23 17/55/21
f 19/56/19 17/55/21 18/57/20
f 32/52/1 17/55/21 19/56/19
f 22/51/16 20/58/18 21/59/17
f 25/48/13 20/58/18 22/51/16
f 25/48/13 19/56/19 20/58/18
f 27/60/11 25/48/13 26/61/12
f 27/60/11 19/56/19 25/48/13
f 31/62/7 32/52/1 30/63/8
f 32/52/1 19/56/19 30/63/8
f 19/56/19 27/60/11 30/63/8
f 27/60/11 28/64/10 30/63/8
f 28/64/10 29/65/9 30/63/8
